<mxfile host="app.diagrams.net" modified="2020-07-17T02:39:42.930Z" agent="5.0 (Windows NT 10.0; Win64; x64) AppleWebKit/537.36 (KHTML, like Gecko) Chrome/83.0.4103.116 Safari/537.36 Edg/83.0.478.61" etag="e6M8b0HwIgShGQERsxG8" version="13.4.1" type="github">
  <diagram id="jLPRGCOZwmqh3J90Tt5_" name="Page-1">
    <mxGraphModel dx="1512" dy="873" grid="1" gridSize="10" guides="1" tooltips="1" connect="1" arrows="1" fold="1" page="1" pageScale="1" pageWidth="827" pageHeight="1169" math="0" shadow="0">
      <root>
        <mxCell id="0" />
        <mxCell id="1" parent="0" />
        <mxCell id="_mSSNc8dAbKkHHvzRN5z-1" value="" style="rounded=0;whiteSpace=wrap;html=1;fillColor=#d5e8d4;strokeColor=#82b366;" vertex="1" parent="1">
          <mxGeometry x="110" y="270" width="220" height="430" as="geometry" />
        </mxCell>
        <mxCell id="_mSSNc8dAbKkHHvzRN5z-2" value="1594948823001&amp;nbsp; &amp;nbsp; &amp;nbsp; &amp;nbsp; &amp;nbsp; &amp;nbsp; &amp;nbsp; &amp;nbsp; &amp;nbsp; &amp;nbsp; &amp;nbsp;[Tasks...]" style="rounded=0;whiteSpace=wrap;html=1;fillColor=#fff2cc;strokeColor=#d6b656;align=left;" vertex="1" parent="1">
          <mxGeometry x="110" y="270" width="220" height="50" as="geometry" />
        </mxCell>
        <mxCell id="_mSSNc8dAbKkHHvzRN5z-3" value="1594948833002&amp;nbsp;&amp;nbsp; &amp;nbsp; &amp;nbsp; &amp;nbsp; &amp;nbsp; &amp;nbsp; &amp;nbsp; &amp;nbsp; &amp;nbsp; &amp;nbsp;&amp;nbsp;[Tasks...]" style="rounded=0;whiteSpace=wrap;html=1;fillColor=#fff2cc;strokeColor=#d6b656;align=left;" vertex="1" parent="1">
          <mxGeometry x="110" y="320" width="220" height="50" as="geometry" />
        </mxCell>
        <mxCell id="_mSSNc8dAbKkHHvzRN5z-4" value="1594948843003&amp;nbsp; &amp;nbsp; &amp;nbsp; &amp;nbsp; &amp;nbsp; &amp;nbsp; &amp;nbsp; &amp;nbsp; &amp;nbsp; &amp;nbsp; &amp;nbsp;[Tasks...]" style="rounded=0;whiteSpace=wrap;html=1;fillColor=#fff2cc;strokeColor=#d6b656;align=left;" vertex="1" parent="1">
          <mxGeometry x="110" y="380" width="220" height="50" as="geometry" />
        </mxCell>
        <mxCell id="_mSSNc8dAbKkHHvzRN5z-6" value="1594948853004&amp;nbsp; &amp;nbsp; &amp;nbsp; &amp;nbsp; &amp;nbsp; &amp;nbsp; &amp;nbsp; &amp;nbsp; &amp;nbsp; &amp;nbsp; &amp;nbsp;[Tasks...]" style="rounded=0;whiteSpace=wrap;html=1;fillColor=#fff2cc;strokeColor=#d6b656;align=left;" vertex="1" parent="1">
          <mxGeometry x="110" y="430" width="220" height="50" as="geometry" />
        </mxCell>
        <mxCell id="_mSSNc8dAbKkHHvzRN5z-7" value="1594948853005&amp;nbsp; &amp;nbsp; &amp;nbsp; &amp;nbsp; &amp;nbsp; &amp;nbsp; &amp;nbsp; &amp;nbsp; &amp;nbsp; &amp;nbsp; &amp;nbsp;[Tasks...]" style="rounded=0;whiteSpace=wrap;html=1;fillColor=#fff2cc;strokeColor=#d6b656;align=left;" vertex="1" parent="1">
          <mxGeometry x="110" y="480" width="220" height="50" as="geometry" />
        </mxCell>
        <mxCell id="_mSSNc8dAbKkHHvzRN5z-8" value="RollingSearchTaskQueue" style="text;html=1;align=center;verticalAlign=middle;resizable=0;points=[];autosize=1;fontSize=20;" vertex="1" parent="1">
          <mxGeometry x="100" y="240" width="240" height="30" as="geometry" />
        </mxCell>
        <mxCell id="_mSSNc8dAbKkHHvzRN5z-9" value="Timer&lt;br&gt;/ 5s" style="rounded=0;whiteSpace=wrap;html=1;fontSize=20;fillColor=#dae8fc;strokeColor=#6c8ebf;" vertex="1" parent="1">
          <mxGeometry x="530" y="225" width="120" height="60" as="geometry" />
        </mxCell>
        <mxCell id="_mSSNc8dAbKkHHvzRN5z-11" value="" style="endArrow=none;dashed=1;html=1;strokeWidth=2;fontSize=20;" edge="1" parent="1">
          <mxGeometry width="50" height="50" relative="1" as="geometry">
            <mxPoint x="414" y="380" as="sourcePoint" />
            <mxPoint x="94" y="380" as="targetPoint" />
          </mxGeometry>
        </mxCell>
        <mxCell id="_mSSNc8dAbKkHHvzRN5z-13" value="Now" style="text;html=1;align=center;verticalAlign=middle;resizable=0;points=[];autosize=1;fontSize=20;" vertex="1" parent="1">
          <mxGeometry x="330" y="350" width="60" height="30" as="geometry" />
        </mxCell>
        <mxCell id="_mSSNc8dAbKkHHvzRN5z-19" value="" style="endArrow=classic;html=1;shadow=0;dashed=1;fontSize=20;entryX=0;entryY=0.5;entryDx=0;entryDy=0;edgeStyle=orthogonalEdgeStyle;curved=1;" edge="1" parent="1" target="_mSSNc8dAbKkHHvzRN5z-9">
          <mxGeometry relative="1" as="geometry">
            <mxPoint x="330" y="347.3299999999999" as="sourcePoint" />
            <mxPoint x="560" y="342.66999999999996" as="targetPoint" />
          </mxGeometry>
        </mxCell>
        <mxCell id="_mSSNc8dAbKkHHvzRN5z-20" value="取出需要执行的任务" style="edgeLabel;resizable=0;html=1;align=center;verticalAlign=middle;fontSize=12;" connectable="0" vertex="1" parent="_mSSNc8dAbKkHHvzRN5z-19">
          <mxGeometry relative="1" as="geometry" />
        </mxCell>
        <mxCell id="_mSSNc8dAbKkHHvzRN5z-34" value="" style="edgeStyle=orthogonalEdgeStyle;curved=1;rounded=0;sketch=0;orthogonalLoop=1;jettySize=auto;html=1;shadow=0;dashed=1;fontSize=12;" edge="1" parent="1" source="_mSSNc8dAbKkHHvzRN5z-23" target="_mSSNc8dAbKkHHvzRN5z-27">
          <mxGeometry relative="1" as="geometry" />
        </mxCell>
        <mxCell id="_mSSNc8dAbKkHHvzRN5z-23" value="parallelism: 10&lt;br&gt;worker-queue:500" style="rounded=0;whiteSpace=wrap;html=1;fontSize=12;fillColor=#dae8fc;strokeColor=#6c8ebf;" vertex="1" parent="1">
          <mxGeometry x="827" y="300" width="250" height="70" as="geometry" />
        </mxCell>
        <mxCell id="_mSSNc8dAbKkHHvzRN5z-24" value="RollingSearchThreadPool" style="text;html=1;align=center;verticalAlign=middle;resizable=0;points=[];autosize=1;fontSize=20;" vertex="1" parent="1">
          <mxGeometry x="832" y="270" width="240" height="30" as="geometry" />
        </mxCell>
        <mxCell id="_mSSNc8dAbKkHHvzRN5z-25" value="" style="endArrow=classic;html=1;shadow=0;dashed=1;fontSize=20;entryX=0;entryY=0.5;entryDx=0;entryDy=0;edgeStyle=orthogonalEdgeStyle;curved=1;exitX=1;exitY=0.5;exitDx=0;exitDy=0;" edge="1" parent="1" source="_mSSNc8dAbKkHHvzRN5z-9" target="_mSSNc8dAbKkHHvzRN5z-23">
          <mxGeometry relative="1" as="geometry">
            <mxPoint x="340" y="357.3299999999999" as="sourcePoint" />
            <mxPoint x="540" y="264.9999999999999" as="targetPoint" />
          </mxGeometry>
        </mxCell>
        <mxCell id="_mSSNc8dAbKkHHvzRN5z-26" value="丢进线程池执行" style="edgeLabel;resizable=0;html=1;align=center;verticalAlign=middle;fontSize=12;" connectable="0" vertex="1" parent="_mSSNc8dAbKkHHvzRN5z-25">
          <mxGeometry relative="1" as="geometry" />
        </mxCell>
        <mxCell id="_mSSNc8dAbKkHHvzRN5z-33" value="" style="edgeStyle=orthogonalEdgeStyle;curved=1;rounded=0;sketch=0;orthogonalLoop=1;jettySize=auto;html=1;shadow=0;dashed=1;fontSize=12;entryX=0;entryY=0.5;entryDx=0;entryDy=0;" edge="1" parent="1" source="_mSSNc8dAbKkHHvzRN5z-27" target="_mSSNc8dAbKkHHvzRN5z-28">
          <mxGeometry relative="1" as="geometry">
            <mxPoint x="1117" y="455" as="targetPoint" />
          </mxGeometry>
        </mxCell>
        <mxCell id="_mSSNc8dAbKkHHvzRN5z-44" value="Ye&#39;s" style="edgeLabel;html=1;align=center;verticalAlign=middle;resizable=0;points=[];fontSize=12;" vertex="1" connectable="0" parent="_mSSNc8dAbKkHHvzRN5z-33">
          <mxGeometry x="-0.232" y="3" relative="1" as="geometry">
            <mxPoint as="offset" />
          </mxGeometry>
        </mxCell>
        <mxCell id="_mSSNc8dAbKkHHvzRN5z-27" value="Rejected?" style="rhombus;whiteSpace=wrap;html=1;fontSize=12;fillColor=#dae8fc;strokeColor=#6c8ebf;" vertex="1" parent="1">
          <mxGeometry x="867" y="415" width="170" height="80" as="geometry" />
        </mxCell>
        <mxCell id="_mSSNc8dAbKkHHvzRN5z-28" value="Print reject log" style="rounded=0;whiteSpace=wrap;html=1;fontSize=12;fillColor=#f8cecc;strokeColor=#b85450;" vertex="1" parent="1">
          <mxGeometry x="1150" y="437.5" width="110" height="35" as="geometry" />
        </mxCell>
        <mxCell id="_mSSNc8dAbKkHHvzRN5z-29" value="" style="endArrow=none;dashed=1;html=1;strokeWidth=2;fontSize=20;" edge="1" parent="1">
          <mxGeometry width="50" height="50" relative="1" as="geometry">
            <mxPoint x="414" y="540" as="sourcePoint" />
            <mxPoint x="94" y="540" as="targetPoint" />
          </mxGeometry>
        </mxCell>
        <mxCell id="_mSSNc8dAbKkHHvzRN5z-30" value="Now + 10 s" style="text;html=1;align=center;verticalAlign=middle;resizable=0;points=[];autosize=1;fontSize=20;" vertex="1" parent="1">
          <mxGeometry x="330" y="510" width="120" height="30" as="geometry" />
        </mxCell>
        <mxCell id="_mSSNc8dAbKkHHvzRN5z-31" value="1594948853005&amp;nbsp; &amp;nbsp; &amp;nbsp; &amp;nbsp; &amp;nbsp; &amp;nbsp; &amp;nbsp; &amp;nbsp; &amp;nbsp; &amp;nbsp; &amp;nbsp;[Tasks...]" style="rounded=0;whiteSpace=wrap;html=1;fillColor=#fff2cc;strokeColor=#d6b656;align=left;" vertex="1" parent="1">
          <mxGeometry x="110" y="550" width="220" height="50" as="geometry" />
        </mxCell>
        <mxCell id="_mSSNc8dAbKkHHvzRN5z-39" value="" style="edgeStyle=orthogonalEdgeStyle;curved=1;rounded=0;sketch=0;orthogonalLoop=1;jettySize=auto;html=1;shadow=0;dashed=1;fontSize=12;" edge="1" parent="1" source="_mSSNc8dAbKkHHvzRN5z-35" target="_mSSNc8dAbKkHHvzRN5z-38">
          <mxGeometry relative="1" as="geometry" />
        </mxCell>
        <mxCell id="_mSSNc8dAbKkHHvzRN5z-35" value="Update Incident / MergeAlert / MergeLog" style="rounded=0;whiteSpace=wrap;html=1;fontSize=12;fillColor=#dae8fc;strokeColor=#6c8ebf;" vertex="1" parent="1">
          <mxGeometry x="827" y="550" width="250" height="70" as="geometry" />
        </mxCell>
        <mxCell id="_mSSNc8dAbKkHHvzRN5z-36" value="" style="edgeStyle=orthogonalEdgeStyle;curved=1;rounded=0;sketch=0;orthogonalLoop=1;jettySize=auto;html=1;shadow=0;dashed=1;fontSize=12;exitX=0.5;exitY=1;exitDx=0;exitDy=0;" edge="1" parent="1" source="_mSSNc8dAbKkHHvzRN5z-27" target="_mSSNc8dAbKkHHvzRN5z-35">
          <mxGeometry relative="1" as="geometry">
            <mxPoint x="962" y="380" as="sourcePoint" />
            <mxPoint x="962" y="425" as="targetPoint" />
          </mxGeometry>
        </mxCell>
        <mxCell id="_mSSNc8dAbKkHHvzRN5z-37" value="日志/告警" style="edgeLabel;html=1;align=center;verticalAlign=middle;resizable=0;points=[];fontSize=12;" vertex="1" connectable="0" parent="_mSSNc8dAbKkHHvzRN5z-36">
          <mxGeometry x="-0.3277" y="-1" relative="1" as="geometry">
            <mxPoint x="39" y="16.38" as="offset" />
          </mxGeometry>
        </mxCell>
        <mxCell id="_mSSNc8dAbKkHHvzRN5z-45" value="No" style="edgeLabel;html=1;align=center;verticalAlign=middle;resizable=0;points=[];fontSize=12;" vertex="1" connectable="0" parent="_mSSNc8dAbKkHHvzRN5z-36">
          <mxGeometry x="-0.1549" relative="1" as="geometry">
            <mxPoint as="offset" />
          </mxGeometry>
        </mxCell>
        <mxCell id="_mSSNc8dAbKkHHvzRN5z-38" value="Update Search Task&lt;br&gt;&lt;br&gt;Create Sub Search Task" style="rounded=0;whiteSpace=wrap;html=1;fontSize=12;fillColor=#dae8fc;strokeColor=#6c8ebf;" vertex="1" parent="1">
          <mxGeometry x="827" y="650" width="250" height="70" as="geometry" />
        </mxCell>
        <mxCell id="_mSSNc8dAbKkHHvzRN5z-41" value="1594948833002&amp;nbsp;&amp;nbsp; &amp;nbsp; &amp;nbsp; &amp;nbsp; &amp;nbsp; &amp;nbsp; &amp;nbsp; &amp;nbsp; &amp;nbsp; &amp;nbsp;&amp;nbsp;[Tasks...]" style="rounded=0;whiteSpace=wrap;html=1;fillColor=#fff2cc;strokeColor=#d6b656;align=left;" vertex="1" parent="1">
          <mxGeometry x="480" y="610" width="220" height="50" as="geometry" />
        </mxCell>
        <mxCell id="_mSSNc8dAbKkHHvzRN5z-42" value="" style="edgeStyle=orthogonalEdgeStyle;curved=1;rounded=0;sketch=0;orthogonalLoop=1;jettySize=auto;html=1;shadow=0;dashed=1;fontSize=12;entryX=1;entryY=0.5;entryDx=0;entryDy=0;" edge="1" parent="1" target="_mSSNc8dAbKkHHvzRN5z-41">
          <mxGeometry relative="1" as="geometry">
            <mxPoint x="860" y="455" as="sourcePoint" />
            <mxPoint x="962" y="560" as="targetPoint" />
          </mxGeometry>
        </mxCell>
        <mxCell id="_mSSNc8dAbKkHHvzRN5z-43" value="执行完的任务" style="edgeLabel;html=1;align=center;verticalAlign=middle;resizable=0;points=[];fontSize=12;" vertex="1" connectable="0" parent="_mSSNc8dAbKkHHvzRN5z-42">
          <mxGeometry x="-0.3277" y="-1" relative="1" as="geometry">
            <mxPoint x="-25.53" y="14.5" as="offset" />
          </mxGeometry>
        </mxCell>
        <mxCell id="_mSSNc8dAbKkHHvzRN5z-46" value="No" style="edgeLabel;html=1;align=center;verticalAlign=middle;resizable=0;points=[];fontSize=12;" vertex="1" connectable="0" parent="_mSSNc8dAbKkHHvzRN5z-42">
          <mxGeometry x="-0.7191" y="5" relative="1" as="geometry">
            <mxPoint as="offset" />
          </mxGeometry>
        </mxCell>
        <mxCell id="_mSSNc8dAbKkHHvzRN5z-47" value="" style="edgeStyle=orthogonalEdgeStyle;curved=1;rounded=0;sketch=0;orthogonalLoop=1;jettySize=auto;html=1;shadow=0;dashed=1;fontSize=12;exitX=0;exitY=0.5;exitDx=0;exitDy=0;entryX=1;entryY=0.5;entryDx=0;entryDy=0;" edge="1" parent="1" source="_mSSNc8dAbKkHHvzRN5z-41" target="_mSSNc8dAbKkHHvzRN5z-31">
          <mxGeometry relative="1" as="geometry">
            <mxPoint x="870" y="465" as="sourcePoint" />
            <mxPoint x="720" y="595" as="targetPoint" />
          </mxGeometry>
        </mxCell>
        <mxCell id="_mSSNc8dAbKkHHvzRN5z-50" value="Rollup + 10 s" style="edgeLabel;html=1;align=center;verticalAlign=middle;resizable=0;points=[];fontSize=12;" vertex="1" connectable="0" parent="_mSSNc8dAbKkHHvzRN5z-47">
          <mxGeometry x="0.0413" y="1" relative="1" as="geometry">
            <mxPoint as="offset" />
          </mxGeometry>
        </mxCell>
        <mxCell id="_mSSNc8dAbKkHHvzRN5z-57" value="" style="edgeStyle=orthogonalEdgeStyle;curved=1;rounded=0;sketch=0;orthogonalLoop=1;jettySize=auto;html=1;shadow=0;dashed=1;fontSize=12;entryX=0.5;entryY=1;entryDx=0;entryDy=0;exitX=0.5;exitY=1;exitDx=0;exitDy=0;" edge="1" parent="1" source="_mSSNc8dAbKkHHvzRN5z-38" target="_mSSNc8dAbKkHHvzRN5z-58">
          <mxGeometry relative="1" as="geometry">
            <mxPoint x="480.0000000000002" y="785" as="sourcePoint" />
            <mxPoint x="400" y="785" as="targetPoint" />
            <Array as="points">
              <mxPoint x="952" y="810" />
              <mxPoint x="220" y="810" />
            </Array>
          </mxGeometry>
        </mxCell>
        <mxCell id="_mSSNc8dAbKkHHvzRN5z-59" value="Add sub search task" style="edgeLabel;html=1;align=center;verticalAlign=middle;resizable=0;points=[];fontSize=12;" vertex="1" connectable="0" parent="_mSSNc8dAbKkHHvzRN5z-57">
          <mxGeometry x="0.1688" y="1" relative="1" as="geometry">
            <mxPoint x="113.14" y="-21" as="offset" />
          </mxGeometry>
        </mxCell>
        <mxCell id="_mSSNc8dAbKkHHvzRN5z-58" value="1594948833002&amp;nbsp;&amp;nbsp; &amp;nbsp; &amp;nbsp; &amp;nbsp; &amp;nbsp; &amp;nbsp; &amp;nbsp; &amp;nbsp; &amp;nbsp; &amp;nbsp;&amp;nbsp;[Tasks...]" style="rounded=0;whiteSpace=wrap;html=1;fillColor=#fff2cc;strokeColor=#d6b656;align=left;" vertex="1" parent="1">
          <mxGeometry x="110" y="600" width="220" height="50" as="geometry" />
        </mxCell>
        <mxCell id="_mSSNc8dAbKkHHvzRN5z-60" value="Rollup" style="text;html=1;align=center;verticalAlign=middle;resizable=0;points=[];autosize=1;fontSize=20;" vertex="1" parent="1">
          <mxGeometry x="545" y="584" width="70" height="30" as="geometry" />
        </mxCell>
      </root>
    </mxGraphModel>
  </diagram>
</mxfile>
